<svg width="19" height="20" viewBox="0 0 19 20" fill="none" xmlns="http://www.w3.org/2000/svg">
<path fill-rule="evenodd" clip-rule="evenodd" d="M17.9869 5.4585C18.119 5.0399 17.9869 4.73561 17.4024 4.73561H15.459C14.9688 4.73561 14.7424 5.00205 14.6103 5.28705C14.6103 5.28705 13.6106 7.72143 12.2145 9.29969C11.7618 9.75613 11.5544 9.90828 11.3091 9.90828C11.177 9.90828 11.007 9.75613 11.007 9.33791V5.43883C11.007 4.94453 10.8563 4.71631 10.4411 4.71631H7.38476C7.08269 4.71631 6.89418 4.94453 6.89418 5.17275C6.89418 5.64813 7.5922 5.76242 7.66754 7.09353V9.98584C7.66754 10.6134 7.55621 10.728 7.30906 10.728C6.64889 10.728 5.04539 8.27473 4.08351 5.47928C3.89648 4.92561 3.70648 4.71631 3.2159 4.71631H1.25393C0.688008 4.71631 0.59375 4.98238 0.59375 5.26775C0.59375 5.78135 1.25393 8.3675 3.66863 11.7905C5.27213 14.1284 7.55472 15.3849 9.61095 15.3849C10.8563 15.3849 11.007 15.0995 11.007 14.6241V12.8555C11.007 12.2851 11.1202 12.1901 11.5165 12.1901C11.7993 12.1901 12.3088 12.3419 13.4596 13.4641C14.7799 14.7952 15.0063 15.4038 15.7422 15.4038H17.6852C18.2511 15.4038 18.5153 15.1184 18.3643 14.567C18.1947 14.0155 17.5531 13.217 16.723 12.2662C16.2702 11.7341 15.5911 11.1444 15.3837 10.859C15.1009 10.4787 15.1762 10.3265 15.3837 9.98436C15.3648 9.98436 17.742 6.59924 17.9869 5.45701" fill="white"/>
</svg>
