<svg width="57" height="71" viewBox="0 0 57 71" fill="none" xmlns="http://www.w3.org/2000/svg">
<path d="M0.574677 28.319C0.574677 12.855 13.1107 0.319 28.5747 0.319V0.319C44.0386 0.319 56.5747 12.855 56.5747 28.319V70.319H0.574677V28.319Z" fill="white"/>
<ellipse cx="7.33159" cy="31.1356" rx="5.99169" ry="8.38836" fill="#FB9D9D"/>
<ellipse cx="21.2759" cy="14.3589" rx="5.99169" ry="8.38836" fill="#FB9D9D"/>
<ellipse cx="35.6556" cy="14.3589" rx="5.99169" ry="8.38836" fill="#FB9D9D"/>
<ellipse cx="49.8177" cy="31.1356" rx="5.99169" ry="8.38836" fill="#FB9D9D"/>
<path d="M25.3705 36.4519C16.4608 36.4519 9.8847 50.2406 9.8847 59.3623C27.0675 51.9376 27.7039 52.574 43.8261 59.3623C43.8261 36.4519 34.2801 36.4519 25.3705 36.4519Z" fill="#FFA3A3"/>
<path d="M25.9544 40.9568C20.5486 40.9568 16.5586 49.3229 16.5586 54.8575C26.9841 50.3526 27.3702 50.7387 37.1522 54.8575C37.1522 40.9568 31.3603 40.9568 25.9544 40.9568Z" fill="#E78383"/>
</svg>
