<svg width="19" height="20" viewBox="0 0 19 20" fill="none" xmlns="http://www.w3.org/2000/svg">
<path d="M9.49553 2.02319C7.92976 2.02319 6.39915 2.4875 5.09726 3.35739C3.79537 4.22729 2.78068 5.4637 2.18148 6.91028C1.58229 8.35686 1.42551 9.94864 1.73098 11.4843C2.03644 13.02 2.79043 14.4306 3.8976 15.5378C5.00477 16.645 6.41538 17.3989 7.95106 17.7044C9.48675 18.0099 11.0785 17.8531 12.5251 17.2539C13.9717 16.6547 15.2081 15.64 16.078 14.3381C16.9479 13.0362 17.4122 11.5056 17.4122 9.93986C17.4123 8.9002 17.2076 7.87071 16.8098 6.91018C16.4119 5.94965 15.8288 5.07689 15.0937 4.34174C14.3585 3.60659 13.4857 3.02346 12.5252 2.62564C11.5647 2.22782 10.5352 2.02311 9.49553 2.02319V2.02319ZM12.0126 14.0189C11.983 14.0928 11.9379 14.1595 11.8804 14.2145C11.8229 14.2696 11.7543 14.3117 11.6792 14.338C11.604 14.3644 11.5241 14.3744 11.4449 14.3673C11.3656 14.3603 11.2887 14.3364 11.2194 14.2972L9.07028 12.6272L7.69094 13.8998C7.65893 13.9234 7.6215 13.9386 7.58207 13.944C7.54264 13.9494 7.50249 13.9448 7.46531 13.9306L7.72973 11.5647L7.73819 11.5715L7.7436 11.5247C7.7436 11.5247 11.6109 8.0038 11.7684 7.85379C11.9279 7.70416 11.8753 7.6717 11.8753 7.6717C11.8844 7.4892 11.5891 7.6717 11.5891 7.6717L6.46503 10.9682L4.3311 10.2415C4.3311 10.2415 4.00335 10.1239 3.97247 9.86544C3.94001 9.60894 4.34178 9.46961 4.34178 9.46961L12.8261 6.09908C12.8261 6.09908 13.5235 5.78834 13.5235 6.30294L12.0126 14.0189Z" fill="white"/>
</svg>
