<svg width="19" height="20" viewBox="0 0 19 20" fill="none" xmlns="http://www.w3.org/2000/svg">
<path d="M12.9634 2.82523C13.8812 2.82798 14.7607 3.19379 15.4097 3.84278C16.0587 4.49178 16.4245 5.37121 16.4272 6.28902V13.2159C16.4245 14.1337 16.0587 15.0131 15.4097 15.6621C14.7607 16.3111 13.8812 16.6769 12.9634 16.6796H6.03658C5.11877 16.6769 4.23933 16.3111 3.59034 15.6621C2.94135 15.0131 2.57553 14.1337 2.57279 13.2159V6.28902C2.57553 5.37121 2.94135 4.49178 3.59034 3.84278C4.23933 3.19379 5.11877 2.82798 6.03658 2.82523H12.9634ZM12.9634 1.43994H6.03658C3.36953 1.43994 1.1875 3.62197 1.1875 6.28902V13.2159C1.1875 15.8829 3.36953 18.0649 6.03658 18.0649H12.9634C15.6305 18.0649 17.8125 15.8829 17.8125 13.2159V6.28902C17.8125 3.62197 15.6305 1.43994 12.9634 1.43994Z" fill="white"/>
<path d="M14.0025 6.28906C13.797 6.28906 13.5961 6.22812 13.4252 6.11395C13.2543 5.99978 13.1211 5.8375 13.0425 5.64763C12.9639 5.45777 12.9433 5.24885 12.9834 5.04729C13.0235 4.84573 13.1224 4.66059 13.2677 4.51527C13.4131 4.36996 13.5982 4.271 13.7998 4.2309C14.0013 4.19081 14.2102 4.21139 14.4001 4.29003C14.59 4.36868 14.7522 4.50186 14.8664 4.67273C14.9806 4.8436 15.0415 5.04449 15.0415 5.25C15.0418 5.38654 15.0151 5.52178 14.963 5.64798C14.9109 5.77418 14.8344 5.88884 14.7379 5.98538C14.6413 6.08193 14.5266 6.15845 14.4004 6.21057C14.2743 6.26268 14.139 6.28936 14.0025 6.28906ZM9.5 6.98153C10.048 6.98153 10.5838 7.14404 11.0395 7.44852C11.4951 7.75299 11.8503 8.18576 12.06 8.69208C12.2697 9.19841 12.3246 9.75556 12.2177 10.2931C12.1108 10.8306 11.8469 11.3243 11.4594 11.7118C11.0718 12.0994 10.5781 12.3633 10.0406 12.4702C9.50307 12.5771 8.94592 12.5222 8.4396 12.3125C7.93327 12.1028 7.50051 11.7476 7.19603 11.2919C6.89156 10.8363 6.72904 10.3005 6.72904 9.75248C6.72983 9.01782 7.02202 8.31347 7.5415 7.79399C8.06099 7.2745 8.76533 6.98231 9.5 6.98153ZM9.5 5.59623C8.67797 5.59623 7.8744 5.83999 7.19091 6.29669C6.50742 6.75338 5.9747 7.4025 5.66013 8.16196C5.34555 8.92141 5.26324 9.7571 5.42361 10.5633C5.58398 11.3696 5.97983 12.1101 6.56109 12.6914C7.14235 13.2727 7.88292 13.6685 8.68915 13.8289C9.49539 13.9892 10.3311 13.9069 11.0905 13.5924C11.85 13.2778 12.4991 12.7451 12.9558 12.0616C13.4125 11.3781 13.6562 10.5745 13.6562 9.75248C13.6562 8.65018 13.2184 7.59302 12.4389 6.81357C11.6595 6.03412 10.6023 5.59623 9.5 5.59623Z" fill="white"/>
</svg>
