<svg width="19" height="20" viewBox="0 0 19 20" fill="none" xmlns="http://www.w3.org/2000/svg">
<path d="M18.4062 4.50342C17.7381 4.79375 17.0311 4.98502 16.3077 5.0712C17.068 4.62602 17.6397 3.91879 17.9157 3.08213C17.1969 3.50243 16.4118 3.79733 15.5941 3.9542C15.2498 3.59333 14.8356 3.30624 14.3769 3.11039C13.9181 2.91454 13.4244 2.81403 12.9256 2.81495C10.9061 2.81495 9.27178 4.42549 9.27178 6.41084C9.27035 6.687 9.30199 6.96233 9.36604 7.23096C7.91791 7.16307 6.4999 6.79366 5.20273 6.14635C3.90555 5.49904 2.75778 4.58809 1.83283 3.47178C1.50834 4.01882 1.33673 4.64297 1.33594 5.27901C1.33594 6.52588 1.98646 7.62803 2.96875 8.27373C2.38677 8.25992 1.81672 8.10589 1.30699 7.82471V7.86924C1.30699 9.61338 2.56871 11.0644 4.23863 11.3946C3.92461 11.4783 3.60101 11.5208 3.27602 11.5208C3.04541 11.5212 2.81533 11.4988 2.58912 11.454C3.05336 12.8827 4.40451 13.9218 6.00504 13.9515C4.7045 14.9538 3.10777 15.4955 1.46582 15.4915C1.17437 15.4911 0.88319 15.4737 0.59375 15.4395C2.26411 16.5061 4.20577 17.0703 6.18762 17.0649C12.9178 17.0649 16.5946 11.5839 16.5946 6.83018C16.5946 6.67432 16.5905 6.51846 16.5831 6.36631C17.2967 5.85868 17.9141 5.22784 18.4062 4.50342Z" fill="white"/>
</svg>
