<svg width="40" height="40" viewBox="0 0 40 40" fill="none" xmlns="http://www.w3.org/2000/svg">
<path d="M20.2266 3.75C11.0875 3.62656 3.62661 11.0875 3.75005 20.2266C3.87192 28.9914 11.0086 36.1281 19.7735 36.25C28.9141 36.375 36.3734 28.9141 36.2484 19.775C36.1281 11.0086 28.9914 3.87187 20.2266 3.75ZM30.1031 29.3164C30.072 29.3501 30.0339 29.3765 29.9914 29.3937C29.9489 29.411 29.9032 29.4187 29.8574 29.4163C29.8116 29.4139 29.767 29.4015 29.7265 29.3799C29.6861 29.3583 29.6509 29.3281 29.6234 29.2914C28.9247 28.3771 28.0689 27.5944 27.0961 26.9797C25.107 25.7031 22.5867 25 20 25C17.4133 25 14.893 25.7031 12.9039 26.9797C11.9312 27.5941 11.0754 28.3766 10.3766 29.2906C10.3491 29.3273 10.314 29.3575 10.2735 29.3791C10.2331 29.4007 10.1884 29.4131 10.1426 29.4155C10.0968 29.4179 10.0511 29.4102 10.0086 29.3929C9.96617 29.3757 9.92803 29.3493 9.89691 29.3156C7.60447 26.8409 6.3059 23.6073 6.25004 20.2344C6.1227 12.632 12.361 6.26875 19.9664 6.25C27.5719 6.23125 33.75 12.407 33.75 20C33.7526 23.4542 32.45 26.7819 30.1031 29.3164Z" fill="black"/>
<path d="M20.0001 11.25C18.4595 11.25 17.0665 11.8273 16.0767 12.8766C15.0868 13.9258 14.5923 15.3766 14.704 16.9336C14.9306 20 17.3063 22.5 20.0001 22.5C22.6939 22.5 25.0649 20 25.2962 16.9344C25.4118 15.3922 24.9212 13.9547 23.9149 12.8859C22.9212 11.8313 21.5306 11.25 20.0001 11.25Z" fill="black"/>
</svg>
